<svg width="100" height="120" viewBox="0 0 100 120" fill="none" xmlns="http://www.w3.org/2000/svg">
  <path d="M50 10C65.7107 10 82.5 35 82.5 75C82.5 100 65.7107 110 50 110C34.2893 110 17.5 100 17.5 75C17.5 35 34.2893 10 50 10Z" fill="#FFFAED" stroke="#FFBC57" stroke-width="3"/>
  <path d="M60 45C60 50.5228 55.5228 55 50 55C44.4772 55 40 50.5228 40 45C40 39.4772 44.4772 35 50 35C55.5228 35 60 39.4772 60 45Z" fill="#FFBC57" fill-opacity="0.3"/>
  <path d="M65 65C65 70.5228 60.5228 75 55 75C49.4772 75 45 70.5228 45 65C45 59.4772 49.4772 55 55 55C60.5228 55 65 59.4772 65 65Z" fill="#FFBC57" fill-opacity="0.3"/>
  <path d="M50 85C55.5228 85 60 80.5228 60 75C60 69.4772 55.5228 65 50 65C44.4772 65 40 69.4772 40 75C40 80.5228 44.4772 85 50 85Z" fill="#FFBC57" fill-opacity="0.3"/>
</svg> 